<mxfile host="app.diagrams.net" modified="2021-06-22T05:13:16.973Z" agent="5.0 (Windows NT 10.0; Win64; x64) AppleWebKit/537.36 (KHTML, like Gecko) Chrome/91.0.4472.114 Safari/537.36" etag="6cbPLfiyv05_Jm039Ajk" version="14.8.0" type="github">
  <diagram id="C5RBs43oDa-KdzZeNtuy" name="Page-1">
    <mxGraphModel dx="979" dy="606" grid="1" gridSize="10" guides="1" tooltips="1" connect="1" arrows="1" fold="1" page="1" pageScale="1" pageWidth="827" pageHeight="1169" math="0" shadow="0">
      <root>
        <mxCell id="WIyWlLk6GJQsqaUBKTNV-0" />
        <mxCell id="WIyWlLk6GJQsqaUBKTNV-1" parent="WIyWlLk6GJQsqaUBKTNV-0" />
        <mxCell id="WIyWlLk6GJQsqaUBKTNV-2" value="" style="rounded=0;html=1;jettySize=auto;orthogonalLoop=1;fontSize=11;endArrow=block;endFill=0;endSize=8;strokeWidth=1;shadow=0;labelBackgroundColor=none;edgeStyle=orthogonalEdgeStyle;" parent="WIyWlLk6GJQsqaUBKTNV-1" source="WIyWlLk6GJQsqaUBKTNV-3" target="WIyWlLk6GJQsqaUBKTNV-6" edge="1">
          <mxGeometry relative="1" as="geometry">
            <Array as="points">
              <mxPoint x="100" y="160" />
              <mxPoint x="100" y="160" />
            </Array>
          </mxGeometry>
        </mxCell>
        <mxCell id="WIyWlLk6GJQsqaUBKTNV-3" value="底盘初始向左运动" style="rounded=1;whiteSpace=wrap;html=1;fontSize=12;glass=0;strokeWidth=1;shadow=0;" parent="WIyWlLk6GJQsqaUBKTNV-1" vertex="1">
          <mxGeometry x="40" y="90" width="120" height="40" as="geometry" />
        </mxCell>
        <mxCell id="TOjcm67ccsUjkWUcQHcd-18" value="" style="edgeStyle=orthogonalEdgeStyle;rounded=0;orthogonalLoop=1;jettySize=auto;html=1;" edge="1" parent="WIyWlLk6GJQsqaUBKTNV-1" source="WIyWlLk6GJQsqaUBKTNV-6" target="WIyWlLk6GJQsqaUBKTNV-7">
          <mxGeometry relative="1" as="geometry" />
        </mxCell>
        <mxCell id="TOjcm67ccsUjkWUcQHcd-21" value="" style="edgeStyle=orthogonalEdgeStyle;rounded=0;orthogonalLoop=1;jettySize=auto;html=1;" edge="1" parent="WIyWlLk6GJQsqaUBKTNV-1" source="WIyWlLk6GJQsqaUBKTNV-6" target="WIyWlLk6GJQsqaUBKTNV-10">
          <mxGeometry relative="1" as="geometry" />
        </mxCell>
        <mxCell id="WIyWlLk6GJQsqaUBKTNV-6" value="左侧识别到障碍" style="rhombus;whiteSpace=wrap;html=1;shadow=0;fontFamily=Helvetica;fontSize=12;align=center;strokeWidth=1;spacing=6;spacingTop=-4;" parent="WIyWlLk6GJQsqaUBKTNV-1" vertex="1">
          <mxGeometry x="50" y="180" width="100" height="80" as="geometry" />
        </mxCell>
        <mxCell id="WIyWlLk6GJQsqaUBKTNV-7" value="向右运动" style="rounded=1;whiteSpace=wrap;html=1;fontSize=12;glass=0;strokeWidth=1;shadow=0;" parent="WIyWlLk6GJQsqaUBKTNV-1" vertex="1">
          <mxGeometry x="200" y="200" width="120" height="40" as="geometry" />
        </mxCell>
        <mxCell id="TOjcm67ccsUjkWUcQHcd-3" value="" style="edgeStyle=orthogonalEdgeStyle;rounded=0;orthogonalLoop=1;jettySize=auto;html=1;" edge="1" parent="WIyWlLk6GJQsqaUBKTNV-1" source="WIyWlLk6GJQsqaUBKTNV-10" target="WIyWlLk6GJQsqaUBKTNV-12">
          <mxGeometry relative="1" as="geometry" />
        </mxCell>
        <mxCell id="TOjcm67ccsUjkWUcQHcd-5" value="" style="edgeStyle=orthogonalEdgeStyle;rounded=0;orthogonalLoop=1;jettySize=auto;html=1;" edge="1" parent="WIyWlLk6GJQsqaUBKTNV-1" source="WIyWlLk6GJQsqaUBKTNV-10" target="TOjcm67ccsUjkWUcQHcd-0">
          <mxGeometry relative="1" as="geometry" />
        </mxCell>
        <mxCell id="WIyWlLk6GJQsqaUBKTNV-10" value="右侧识别到障碍" style="rhombus;whiteSpace=wrap;html=1;shadow=0;fontFamily=Helvetica;fontSize=12;align=center;strokeWidth=1;spacing=6;spacingTop=-4;" parent="WIyWlLk6GJQsqaUBKTNV-1" vertex="1">
          <mxGeometry x="50" y="300" width="100" height="80" as="geometry" />
        </mxCell>
        <mxCell id="WIyWlLk6GJQsqaUBKTNV-12" value="继续向右运动" style="rounded=1;whiteSpace=wrap;html=1;fontSize=12;glass=0;strokeWidth=1;shadow=0;" parent="WIyWlLk6GJQsqaUBKTNV-1" vertex="1">
          <mxGeometry x="200" y="320" width="120" height="40" as="geometry" />
        </mxCell>
        <mxCell id="TOjcm67ccsUjkWUcQHcd-8" value="" style="edgeStyle=orthogonalEdgeStyle;rounded=0;orthogonalLoop=1;jettySize=auto;html=1;" edge="1" parent="WIyWlLk6GJQsqaUBKTNV-1" source="TOjcm67ccsUjkWUcQHcd-0" target="TOjcm67ccsUjkWUcQHcd-7">
          <mxGeometry relative="1" as="geometry" />
        </mxCell>
        <mxCell id="TOjcm67ccsUjkWUcQHcd-12" value="" style="edgeStyle=orthogonalEdgeStyle;rounded=0;orthogonalLoop=1;jettySize=auto;html=1;" edge="1" parent="WIyWlLk6GJQsqaUBKTNV-1" source="TOjcm67ccsUjkWUcQHcd-0">
          <mxGeometry relative="1" as="geometry">
            <mxPoint x="220" y="470" as="targetPoint" />
          </mxGeometry>
        </mxCell>
        <mxCell id="TOjcm67ccsUjkWUcQHcd-0" value="装甲板被击打" style="rhombus;whiteSpace=wrap;html=1;shadow=0;fontFamily=Helvetica;fontSize=12;align=center;strokeWidth=1;spacing=6;spacingTop=-4;" vertex="1" parent="WIyWlLk6GJQsqaUBKTNV-1">
          <mxGeometry x="50" y="430" width="100" height="80" as="geometry" />
        </mxCell>
        <mxCell id="TOjcm67ccsUjkWUcQHcd-4" value="Yes" style="text;html=1;align=center;verticalAlign=middle;resizable=0;points=[];autosize=1;strokeColor=none;" vertex="1" parent="WIyWlLk6GJQsqaUBKTNV-1">
          <mxGeometry x="150" y="320" width="40" height="20" as="geometry" />
        </mxCell>
        <mxCell id="TOjcm67ccsUjkWUcQHcd-6" value="No" style="text;html=1;align=center;verticalAlign=middle;resizable=0;points=[];autosize=1;strokeColor=none;" vertex="1" parent="WIyWlLk6GJQsqaUBKTNV-1">
          <mxGeometry x="65" y="390" width="30" height="20" as="geometry" />
        </mxCell>
        <mxCell id="TOjcm67ccsUjkWUcQHcd-24" value="" style="edgeStyle=orthogonalEdgeStyle;rounded=0;orthogonalLoop=1;jettySize=auto;html=1;" edge="1" parent="WIyWlLk6GJQsqaUBKTNV-1" source="TOjcm67ccsUjkWUcQHcd-7" target="TOjcm67ccsUjkWUcQHcd-23">
          <mxGeometry relative="1" as="geometry" />
        </mxCell>
        <mxCell id="TOjcm67ccsUjkWUcQHcd-25" value="Yes" style="edgeLabel;html=1;align=center;verticalAlign=middle;resizable=0;points=[];" vertex="1" connectable="0" parent="TOjcm67ccsUjkWUcQHcd-24">
          <mxGeometry x="-0.2164" y="-1" relative="1" as="geometry">
            <mxPoint x="9" y="-11" as="offset" />
          </mxGeometry>
        </mxCell>
        <mxCell id="TOjcm67ccsUjkWUcQHcd-26" style="edgeStyle=orthogonalEdgeStyle;rounded=0;orthogonalLoop=1;jettySize=auto;html=1;" edge="1" parent="WIyWlLk6GJQsqaUBKTNV-1" source="TOjcm67ccsUjkWUcQHcd-7">
          <mxGeometry relative="1" as="geometry">
            <mxPoint x="20" y="160" as="targetPoint" />
          </mxGeometry>
        </mxCell>
        <mxCell id="TOjcm67ccsUjkWUcQHcd-7" value="底盘缓冲低于50j" style="rhombus;whiteSpace=wrap;html=1;shadow=0;strokeWidth=1;spacing=6;spacingTop=-4;" vertex="1" parent="WIyWlLk6GJQsqaUBKTNV-1">
          <mxGeometry x="60" y="540" width="80" height="80" as="geometry" />
        </mxCell>
        <mxCell id="TOjcm67ccsUjkWUcQHcd-13" value="加速运动" style="rounded=1;whiteSpace=wrap;html=1;fontSize=12;glass=0;strokeWidth=1;shadow=0;" vertex="1" parent="WIyWlLk6GJQsqaUBKTNV-1">
          <mxGeometry x="220" y="450" width="120" height="40" as="geometry" />
        </mxCell>
        <mxCell id="TOjcm67ccsUjkWUcQHcd-14" value="Yes" style="text;html=1;align=center;verticalAlign=middle;resizable=0;points=[];autosize=1;strokeColor=none;" vertex="1" parent="WIyWlLk6GJQsqaUBKTNV-1">
          <mxGeometry x="160" y="440" width="40" height="20" as="geometry" />
        </mxCell>
        <mxCell id="TOjcm67ccsUjkWUcQHcd-15" value="No" style="text;html=1;align=center;verticalAlign=middle;resizable=0;points=[];autosize=1;strokeColor=none;" vertex="1" parent="WIyWlLk6GJQsqaUBKTNV-1">
          <mxGeometry x="65" y="520" width="30" height="20" as="geometry" />
        </mxCell>
        <mxCell id="TOjcm67ccsUjkWUcQHcd-19" value="Yes" style="text;html=1;align=center;verticalAlign=middle;resizable=0;points=[];autosize=1;strokeColor=none;" vertex="1" parent="WIyWlLk6GJQsqaUBKTNV-1">
          <mxGeometry x="150" y="200" width="40" height="20" as="geometry" />
        </mxCell>
        <mxCell id="TOjcm67ccsUjkWUcQHcd-22" value="No" style="text;html=1;align=center;verticalAlign=middle;resizable=0;points=[];autosize=1;strokeColor=none;" vertex="1" parent="WIyWlLk6GJQsqaUBKTNV-1">
          <mxGeometry x="65" y="270" width="30" height="20" as="geometry" />
        </mxCell>
        <mxCell id="TOjcm67ccsUjkWUcQHcd-23" value="减速运动" style="rounded=1;whiteSpace=wrap;html=1;fontSize=12;glass=0;strokeWidth=1;shadow=0;" vertex="1" parent="WIyWlLk6GJQsqaUBKTNV-1">
          <mxGeometry x="220" y="560" width="120" height="40" as="geometry" />
        </mxCell>
        <mxCell id="TOjcm67ccsUjkWUcQHcd-27" style="edgeStyle=orthogonalEdgeStyle;rounded=0;orthogonalLoop=1;jettySize=auto;html=1;" edge="1" parent="WIyWlLk6GJQsqaUBKTNV-1" source="TOjcm67ccsUjkWUcQHcd-7">
          <mxGeometry relative="1" as="geometry">
            <mxPoint x="20" y="160" as="targetPoint" />
            <mxPoint x="60" y="580" as="sourcePoint" />
            <Array as="points">
              <mxPoint x="20" y="580" />
            </Array>
          </mxGeometry>
        </mxCell>
        <mxCell id="TOjcm67ccsUjkWUcQHcd-29" style="edgeStyle=orthogonalEdgeStyle;rounded=0;orthogonalLoop=1;jettySize=auto;html=1;" edge="1" parent="WIyWlLk6GJQsqaUBKTNV-1" source="TOjcm67ccsUjkWUcQHcd-7">
          <mxGeometry relative="1" as="geometry">
            <mxPoint x="100" y="160" as="targetPoint" />
            <mxPoint x="60" y="580" as="sourcePoint" />
            <Array as="points">
              <mxPoint x="20" y="580" />
            </Array>
          </mxGeometry>
        </mxCell>
        <mxCell id="TOjcm67ccsUjkWUcQHcd-30" value="" style="rounded=0;html=1;jettySize=auto;orthogonalLoop=1;fontSize=11;endArrow=block;endFill=0;endSize=8;strokeWidth=1;shadow=0;labelBackgroundColor=none;edgeStyle=orthogonalEdgeStyle;" edge="1" parent="WIyWlLk6GJQsqaUBKTNV-1" source="TOjcm67ccsUjkWUcQHcd-31" target="TOjcm67ccsUjkWUcQHcd-34">
          <mxGeometry relative="1" as="geometry">
            <Array as="points">
              <mxPoint x="519" y="150" />
              <mxPoint x="519" y="150" />
            </Array>
          </mxGeometry>
        </mxCell>
        <mxCell id="TOjcm67ccsUjkWUcQHcd-31" value="云台初始运动顺时针" style="rounded=1;whiteSpace=wrap;html=1;fontSize=12;glass=0;strokeWidth=1;shadow=0;" vertex="1" parent="WIyWlLk6GJQsqaUBKTNV-1">
          <mxGeometry x="459" y="80" width="120" height="40" as="geometry" />
        </mxCell>
        <mxCell id="TOjcm67ccsUjkWUcQHcd-32" value="" style="edgeStyle=orthogonalEdgeStyle;rounded=0;orthogonalLoop=1;jettySize=auto;html=1;" edge="1" parent="WIyWlLk6GJQsqaUBKTNV-1" source="TOjcm67ccsUjkWUcQHcd-34" target="TOjcm67ccsUjkWUcQHcd-35">
          <mxGeometry relative="1" as="geometry" />
        </mxCell>
        <mxCell id="TOjcm67ccsUjkWUcQHcd-33" value="" style="edgeStyle=orthogonalEdgeStyle;rounded=0;orthogonalLoop=1;jettySize=auto;html=1;entryX=0.5;entryY=0;entryDx=0;entryDy=0;" edge="1" parent="WIyWlLk6GJQsqaUBKTNV-1" source="TOjcm67ccsUjkWUcQHcd-34" target="TOjcm67ccsUjkWUcQHcd-38">
          <mxGeometry relative="1" as="geometry">
            <mxPoint x="519" y="290" as="targetPoint" />
          </mxGeometry>
        </mxCell>
        <mxCell id="TOjcm67ccsUjkWUcQHcd-34" value="顺时针运动了两圈" style="rhombus;whiteSpace=wrap;html=1;shadow=0;fontFamily=Helvetica;fontSize=12;align=center;strokeWidth=1;spacing=6;spacingTop=-4;" vertex="1" parent="WIyWlLk6GJQsqaUBKTNV-1">
          <mxGeometry x="459" y="170" width="110" height="80" as="geometry" />
        </mxCell>
        <mxCell id="TOjcm67ccsUjkWUcQHcd-35" value="逆时针转" style="rounded=1;whiteSpace=wrap;html=1;fontSize=12;glass=0;strokeWidth=1;shadow=0;" vertex="1" parent="WIyWlLk6GJQsqaUBKTNV-1">
          <mxGeometry x="619" y="190" width="120" height="40" as="geometry" />
        </mxCell>
        <mxCell id="TOjcm67ccsUjkWUcQHcd-36" value="" style="edgeStyle=orthogonalEdgeStyle;rounded=0;orthogonalLoop=1;jettySize=auto;html=1;" edge="1" parent="WIyWlLk6GJQsqaUBKTNV-1" source="TOjcm67ccsUjkWUcQHcd-38" target="TOjcm67ccsUjkWUcQHcd-39">
          <mxGeometry relative="1" as="geometry" />
        </mxCell>
        <mxCell id="TOjcm67ccsUjkWUcQHcd-37" value="" style="edgeStyle=orthogonalEdgeStyle;rounded=0;orthogonalLoop=1;jettySize=auto;html=1;" edge="1" parent="WIyWlLk6GJQsqaUBKTNV-1" source="TOjcm67ccsUjkWUcQHcd-38" target="TOjcm67ccsUjkWUcQHcd-42">
          <mxGeometry relative="1" as="geometry" />
        </mxCell>
        <mxCell id="TOjcm67ccsUjkWUcQHcd-38" value="逆时针运动了两圈" style="rhombus;whiteSpace=wrap;html=1;shadow=0;fontFamily=Helvetica;fontSize=12;align=center;strokeWidth=1;spacing=6;spacingTop=-4;" vertex="1" parent="WIyWlLk6GJQsqaUBKTNV-1">
          <mxGeometry x="456.5" y="290" width="115" height="80" as="geometry" />
        </mxCell>
        <mxCell id="TOjcm67ccsUjkWUcQHcd-39" value="顺时针转" style="rounded=1;whiteSpace=wrap;html=1;fontSize=12;glass=0;strokeWidth=1;shadow=0;" vertex="1" parent="WIyWlLk6GJQsqaUBKTNV-1">
          <mxGeometry x="619" y="310" width="120" height="40" as="geometry" />
        </mxCell>
        <mxCell id="TOjcm67ccsUjkWUcQHcd-41" value="" style="edgeStyle=orthogonalEdgeStyle;rounded=0;orthogonalLoop=1;jettySize=auto;html=1;" edge="1" parent="WIyWlLk6GJQsqaUBKTNV-1" source="TOjcm67ccsUjkWUcQHcd-42">
          <mxGeometry relative="1" as="geometry">
            <mxPoint x="639" y="460" as="targetPoint" />
          </mxGeometry>
        </mxCell>
        <mxCell id="TOjcm67ccsUjkWUcQHcd-58" style="edgeStyle=orthogonalEdgeStyle;rounded=0;orthogonalLoop=1;jettySize=auto;html=1;" edge="1" parent="WIyWlLk6GJQsqaUBKTNV-1" source="TOjcm67ccsUjkWUcQHcd-42">
          <mxGeometry relative="1" as="geometry">
            <mxPoint x="419" y="150" as="targetPoint" />
          </mxGeometry>
        </mxCell>
        <mxCell id="TOjcm67ccsUjkWUcQHcd-42" value="识别到目标" style="rhombus;whiteSpace=wrap;html=1;shadow=0;fontFamily=Helvetica;fontSize=12;align=center;strokeWidth=1;spacing=6;spacingTop=-4;" vertex="1" parent="WIyWlLk6GJQsqaUBKTNV-1">
          <mxGeometry x="464" y="420" width="100" height="80" as="geometry" />
        </mxCell>
        <mxCell id="TOjcm67ccsUjkWUcQHcd-43" value="Yes" style="text;html=1;align=center;verticalAlign=middle;resizable=0;points=[];autosize=1;strokeColor=none;" vertex="1" parent="WIyWlLk6GJQsqaUBKTNV-1">
          <mxGeometry x="569" y="310" width="40" height="20" as="geometry" />
        </mxCell>
        <mxCell id="TOjcm67ccsUjkWUcQHcd-44" value="No" style="text;html=1;align=center;verticalAlign=middle;resizable=0;points=[];autosize=1;strokeColor=none;" vertex="1" parent="WIyWlLk6GJQsqaUBKTNV-1">
          <mxGeometry x="484" y="380" width="30" height="20" as="geometry" />
        </mxCell>
        <mxCell id="TOjcm67ccsUjkWUcQHcd-49" value="继续执行上位机数据" style="rounded=1;whiteSpace=wrap;html=1;fontSize=12;glass=0;strokeWidth=1;shadow=0;" vertex="1" parent="WIyWlLk6GJQsqaUBKTNV-1">
          <mxGeometry x="639" y="440" width="120" height="40" as="geometry" />
        </mxCell>
        <mxCell id="TOjcm67ccsUjkWUcQHcd-50" value="Yes" style="text;html=1;align=center;verticalAlign=middle;resizable=0;points=[];autosize=1;strokeColor=none;" vertex="1" parent="WIyWlLk6GJQsqaUBKTNV-1">
          <mxGeometry x="579" y="430" width="40" height="20" as="geometry" />
        </mxCell>
        <mxCell id="TOjcm67ccsUjkWUcQHcd-52" value="Yes" style="text;html=1;align=center;verticalAlign=middle;resizable=0;points=[];autosize=1;strokeColor=none;" vertex="1" parent="WIyWlLk6GJQsqaUBKTNV-1">
          <mxGeometry x="569" y="190" width="40" height="20" as="geometry" />
        </mxCell>
        <mxCell id="TOjcm67ccsUjkWUcQHcd-53" value="No" style="text;html=1;align=center;verticalAlign=middle;resizable=0;points=[];autosize=1;strokeColor=none;" vertex="1" parent="WIyWlLk6GJQsqaUBKTNV-1">
          <mxGeometry x="484" y="260" width="30" height="20" as="geometry" />
        </mxCell>
        <mxCell id="TOjcm67ccsUjkWUcQHcd-57" value="这里云台运动以pitch轴为例,yaw轴同理" style="text;html=1;align=center;verticalAlign=middle;resizable=0;points=[];autosize=1;strokeColor=none;" vertex="1" parent="WIyWlLk6GJQsqaUBKTNV-1">
          <mxGeometry x="449" y="40" width="220" height="20" as="geometry" />
        </mxCell>
        <mxCell id="TOjcm67ccsUjkWUcQHcd-59" style="edgeStyle=orthogonalEdgeStyle;rounded=0;orthogonalLoop=1;jettySize=auto;html=1;" edge="1" parent="WIyWlLk6GJQsqaUBKTNV-1" source="TOjcm67ccsUjkWUcQHcd-42">
          <mxGeometry relative="1" as="geometry">
            <mxPoint x="419" y="150" as="targetPoint" />
            <mxPoint x="463.9999999999998" y="460" as="sourcePoint" />
          </mxGeometry>
        </mxCell>
        <mxCell id="TOjcm67ccsUjkWUcQHcd-60" value="" style="rounded=0;html=1;jettySize=auto;orthogonalLoop=1;fontSize=11;endArrow=block;endFill=0;endSize=8;strokeWidth=1;shadow=0;labelBackgroundColor=none;edgeStyle=orthogonalEdgeStyle;" edge="1" parent="WIyWlLk6GJQsqaUBKTNV-1" source="TOjcm67ccsUjkWUcQHcd-31" target="TOjcm67ccsUjkWUcQHcd-34">
          <mxGeometry relative="1" as="geometry">
            <Array as="points">
              <mxPoint x="519" y="150" />
              <mxPoint x="519" y="150" />
            </Array>
            <mxPoint x="518.9655172413793" y="119.99999999999989" as="sourcePoint" />
            <mxPoint x="518.9655172413793" y="173.6112852664579" as="targetPoint" />
          </mxGeometry>
        </mxCell>
        <mxCell id="TOjcm67ccsUjkWUcQHcd-62" value="" style="endArrow=classic;html=1;" edge="1" parent="WIyWlLk6GJQsqaUBKTNV-1">
          <mxGeometry width="50" height="50" relative="1" as="geometry">
            <mxPoint x="414" y="150" as="sourcePoint" />
            <mxPoint x="519" y="150" as="targetPoint" />
          </mxGeometry>
        </mxCell>
      </root>
    </mxGraphModel>
  </diagram>
</mxfile>
